<?xml version="1.0" encoding="UTF-8" standalone="no"?>
<svg
   xmlns:dc="http://purl.org/dc/elements/1.1/"
   xmlns:cc="http://creativecommons.org/ns#"
   xmlns:rdf="http://www.w3.org/1999/02/22-rdf-syntax-ns#"
   xmlns:svg="http://www.w3.org/2000/svg"
   xmlns="http://www.w3.org/2000/svg"
   xmlns:sodipodi="http://sodipodi.sourceforge.net/DTD/sodipodi-0.dtd"
   xmlns:inkscape="http://www.inkscape.org/namespaces/inkscape"
   id="Layer_1"
   data-name="Layer 1"
   viewBox="0 0 999.99992 420.75123"
   version="1.1"
   sodipodi:docname="CTV_Comedy_colour.svg"
   width="999.99994"
   height="420.75125"
   inkscape:version="0.92.4 (5da689c313, 2019-01-14)">
  <metadata
     id="metadata443">
    <rdf:RDF>
      <cc:Work
         rdf:about="">
        <dc:format>image/svg+xml</dc:format>
        <dc:type
           rdf:resource="http://purl.org/dc/dcmitype/StillImage" />
        <dc:title>CTV_Comedy_colour</dc:title>
      </cc:Work>
    </rdf:RDF>
  </metadata>
  <sodipodi:namedview
     pagecolor="#ffffff"
     bordercolor="#666666"
     borderopacity="1"
     objecttolerance="10"
     gridtolerance="10"
     guidetolerance="10"
     inkscape:pageopacity="0"
     inkscape:pageshadow="2"
     inkscape:window-width="1920"
     inkscape:window-height="1017"
     id="namedview441"
     showgrid="false"
     fit-margin-top="0"
     fit-margin-left="0"
     fit-margin-right="0"
     fit-margin-bottom="0"
     inkscape:zoom="0.46317026"
     inkscape:cx="854.83549"
     inkscape:cy="-24.767492"
     inkscape:window-x="1912"
     inkscape:window-y="-8"
     inkscape:window-maximized="1"
     inkscape:current-layer="Layer_1" />
  <defs
     id="defs398">
    <style
       id="style396">.cls-1{fill:#005fff;}.cls-2{fill:#ea0000;}.cls-3{fill:#23be19;}.cls-4{fill:#fff;}.cls-5{fill:#fa5c13;}</style>
  </defs>
  <title
     id="title400">CTV_Comedy_colour</title>
  <rect
     class="cls-1"
     x="425.93271"
     y="3.6957016"
     width="135.62143"
     height="137.86127"
     id="rect402"
     style="fill:#005fff;stroke-width:11.19912815" />
  <circle
     class="cls-2"
     cx="343.95511"
     cy="72.682335"
     r="72.682335"
     id="circle404"
     style="fill:#ea0000;stroke-width:11.19912815" />
  <polygon
     class="cls-3"
     points="50.73,0.33 58.02,12.99 65.3,0.33 "
     id="polygon406"
     transform="matrix(11.199128,0,0,11.199128,-0.41810606,-3.7329102e-6)"
     style="fill:#23be19" />
  <path
     class="cls-4"
     d="m 374.08073,90.264966 a 34.717297,34.717297 0 0 1 -30.12565,17.358654 34.94128,34.94128 0 1 1 0,-69.882564 34.717297,34.717297 0 0 1 30.12565,17.35865 l 9.96723,-6.04753 a 47.036337,47.036337 0 1 0 0,47.26032 z"
     id="path408"
     inkscape:connector-curvature="0"
     style="fill:#ffffff;stroke-width:11.19912815" />
  <polygon
     class="cls-4"
     points="43.57,3.56 43.57,10.51 44.67,10.51 44.67,3.56 47.97,3.56 47.97,2.48 40.27,2.48 40.27,3.56 "
     id="polygon410"
     transform="matrix(11.199128,0,0,11.199128,-0.41810606,-3.7329102e-6)"
     style="fill:#ffffff" />
  <polygon
     class="cls-4"
     points="54.68,2.48 53.4,2.48 58.02,10.51 62.63,2.48 61.35,2.48 58.02,8.34 "
     id="polygon412"
     transform="matrix(11.199128,0,0,11.199128,-0.41810606,-3.7329102e-6)"
     style="fill:#ffffff" />
  <path
     class="cls-5"
     d="M 198.4784,171.68263 A 76.490044,76.490044 0 1 1 122.32433,247.8367 76.378053,76.378053 0 0 1 198.4784,171.68263 Z M 160.62535,247.8367 A 38.189026,38.189026 0 1 0 198.4784,208.41577 38.077035,38.077035 0 0 0 160.62535,247.8367 Z"
     id="path414"
     inkscape:connector-curvature="0"
     style="fill:#fa5c13;stroke-width:11.19912815" />
  <path
     class="cls-5"
     d="m 104.06976,275.27457 a 35.613227,35.613227 0 0 1 -27.997822,12.87899 39.980888,39.980888 0 0 1 0,-79.96177 37.181105,37.181105 0 0 1 27.997822,12.54302 98.8883,98.8883 0 0 1 17.47064,-34.38132 76.378053,76.378053 0 1 0 0,123.19041 100.79215,100.79215 0 0 1 -17.47064,-34.26933 z"
     id="path416"
     inkscape:connector-curvature="0"
     style="fill:#fa5c13;stroke-width:11.19912815" />
  <path
     class="cls-5"
     d="m 328.05232,318.83917 h -38.637 V 176.61025 h 38.637 v 17.24666 a 44.796512,44.796512 0 0 1 39.19694,-22.39826 46.140407,46.140407 0 0 1 39.19695,21.39034 55.99564,55.99564 0 0 1 46.2524,-21.16636 c 33.59738,0 54.31577,24.4141 54.31577,65.73889 v 81.41765 h -38.63699 v -78.39389 c 0,-19.37449 -8.39935,-33.59738 -26.31795,-33.59738 -17.91861,0 -24.86207,14.55886 -24.86207,33.59738 v 78.39389 h -38.07703 v -78.39389 c 0,-19.37449 -8.84731,-33.59738 -26.31795,-33.59738 -17.47064,0 -24.75007,14.55886 -24.75007,33.59738 z"
     id="path418"
     inkscape:connector-curvature="0"
     style="fill:#fa5c13;stroke-width:11.19912815" />
  <path
     class="cls-5"
     d="m 798.41569,194.41686 v -61.81918 h 38.63699 v 186.24149 h -38.63699 v -15.00683 a 54.091788,54.091788 0 0 1 -44.79651,20.83038 73.690262,73.690262 0 0 1 -70.6665,-75.93009 74.810175,74.810175 0 0 1 70.6665,-77.05 54.091788,54.091788 0 0 1 44.79651,22.73423 z m -78.3939,54.31577 a 38.636995,38.636995 0 1 0 77.27399,0 38.748983,38.748983 0 1 0 -77.27399,0 z"
     id="path420"
     inkscape:connector-curvature="0"
     style="fill:#fa5c13;stroke-width:11.19912815" />
  <path
     class="cls-5"
     d="M 903.79948,285.24179 847.01991,176.61025 h 42.22071 l 34.26933,69.65858 34.26933,-69.65858 h 42.22068 l -92.16879,178.29011 h -41.32478 z"
     id="path422"
     inkscape:connector-curvature="0"
     style="fill:#fa5c13;stroke-width:11.19912815" />
  <path
     class="cls-5"
     d="m 595.3755,171.68263 a 74.586192,74.586192 0 0 0 -74.25022,76.15407 78.393896,78.393896 0 0 0 135.28547,52.74789 l -24.86207,-25.98197 a 44.796512,44.796512 0 0 1 -33.59738,14.67085 35.165262,35.165262 0 0 1 -36.73314,-26.54193 h 107.73561 a 62.939099,62.939099 0 0 0 1.11991,-14.89484 75.034157,75.034157 0 0 0 -74.69818,-76.15407 z m -34.26933,61.7072 a 33.597384,33.597384 0 0 1 34.26933,-26.31795 33.597384,33.597384 0 0 1 33.59738,26.31795 z"
     id="path424"
     inkscape:connector-curvature="0"
     style="fill:#fa5c13;stroke-width:11.19912815" />
  <polygon
     class="cls-5"
     points="29.21,31.57 29.21,37.42 30.59,37.42 30.59,35.16 33.12,35.16 33.12,37.42 34.49,37.42 34.49,31.57 33.12,31.57 33.12,33.83 30.59,33.83 30.59,31.57 "
     id="polygon426"
     transform="matrix(11.199128,0,0,11.199128,-0.41810606,-3.7329102e-6)"
     style="fill:#fa5c13" />
  <path
     class="cls-5"
     d="m 428.84447,353.55647 -33.59739,65.5149 h 16.46272 l 4.92762,-9.85524 h 28.66977 l 5.0396,9.85524 h 16.46272 l -34.6053,-65.5149 z m -7.16744,41.66075 8.84731,-17.47064 8.84731,17.47064 z"
     id="path428"
     inkscape:connector-curvature="0"
     style="fill:#fa5c13;stroke-width:11.19912815" />
  <polygon
     class="cls-5"
     points="42.47,37.42 43.85,37.42 43.85,34.27 47.45,37.4 47.48,37.42 47.8,37.42 47.8,31.57 46.42,31.57 46.42,34.68 42.79,31.57 42.47,31.57 "
     id="polygon430"
     transform="matrix(11.199128,0,0,11.199128,-0.41810606,-3.7329102e-6)"
     style="fill:#fa5c13" />
  <polygon
     class="cls-5"
     points="49.23,37.42 50.61,37.42 50.61,34.27 54.21,37.4 54.24,37.42 54.56,37.42 54.56,31.57 53.18,31.57 53.18,34.68 49.55,31.57 49.23,31.57 "
     id="polygon432"
     transform="matrix(11.199128,0,0,11.199128,-0.41810606,-3.7329102e-6)"
     style="fill:#fa5c13" />
  <polygon
     class="cls-5"
     points="57.37,36.1 57.37,35.16 60.36,35.16 60.36,33.83 57.37,33.83 57.37,32.89 60.59,32.89 60.59,31.57 55.99,31.57 55.99,37.42 60.59,37.42 60.59,36.1 "
     id="polygon434"
     transform="matrix(11.199128,0,0,11.199128,-0.41810606,-3.7329102e-6)"
     style="fill:#fa5c13" />
  <polygon
     class="cls-5"
     points="61.88,37.42 66.34,37.42 66.34,36.1 63.26,36.1 63.26,31.57 61.88,31.57 "
     id="polygon436"
     transform="matrix(11.199128,0,0,11.199128,-0.41810606,-3.7329102e-6)"
     style="fill:#fa5c13" />
  <path
     class="cls-5"
     d="m 297.59069,369.9072 a 18.36657,18.36657 0 0 1 5.26359,5.71155 l 13.99891,-7.83939 a 34.269332,34.269332 0 0 0 -29.00574,-16.01475 34.381323,34.381323 0 0 0 -34.60531,34.49331 34.605305,34.605305 0 0 0 34.60531,34.49332 35.501236,35.501236 0 0 0 17.80661,-5.26359 34.941279,34.941279 0 0 0 10.52718,-10.52718 l -13.77493,-7.95138 a 22.398256,22.398256 0 0 1 -4.81562,5.37558 17.806613,17.806613 0 0 1 -22.95822,-2.01585 19.486483,19.486483 0 0 1 -6.04752,-14.1109 20.270422,20.270422 0 0 1 6.04752,-14.22289 17.806613,17.806613 0 0 1 22.95822,-2.12783 z"
     id="path438"
     inkscape:connector-curvature="0"
     style="fill:#fa5c13;stroke-width:11.19912815" />
</svg>
