<?xml version="1.0" encoding="utf-8"?>
<!-- Generator: Adobe Illustrator 19.0.0, SVG Export Plug-In . SVG Version: 6.00 Build 0)  -->
<svg version="1.1" id="layer" xmlns="http://www.w3.org/2000/svg" xmlns:xlink="http://www.w3.org/1999/xlink" x="0px" y="0px"
	 viewBox="-153 -46 652 652" style="enable-background:new -153 -46 652 652;" xml:space="preserve">
<style type="text/css">
	.st0{fill:#E50B14;}
	.st1{fill:#70B92F;}
	.st2{fill:#7A9332;}
	.st3{fill:#FFFFFF;}
</style>
<g>
	<path class="st0" d="M122.7,173.3c9-0.3,18.6-1.5,23.9-4.5c2.7-1.5,14.6-5,14.6-5c1.3-10.2-4-19.2-6.9-26.3c-0.1-0.4-0.3-0.7-0.4-1
		c-1.3-3.6-1.9-6.6-0.5-9c4.4-7.1-9.5-37.5-8.3-40.1c4.4-9.5-6.4-25.6-7.9-32.7c-0.9-4.5-3.6-27.6-10.9-29.4
		c-7.3-1.7-12.8,28.2-12.8,28.2c-13.6,3.9-3.9,34.4-3.9,34.4c-12.1,3.7-13.2,27.5-11.7,48.6c0,0.4,0,0.7,0.1,1
		c1.4,17.7,4.5,33.2,4.5,33.2S113.1,173.5,122.7,173.3"/>
	<path class="st0" d="M206.1,172.7c10,0.9,18.6-0.3,26-2.9c2.7-10.3,5.5-21.4,7.8-32.2c1.3-6.1,2.5-12.1,3.4-17.9
		c2.7-17.9,1.2-32.3-7.6-33.6c0,0,6.7-12.3,1.8-19.8c0,0-1.8-41.9-9.4-39.2c-7.6,2.7-13.6,25.7-15.2,30.3
		c-1.6,4.6-21.9,20.8-12.6,33.1c1.9,2.4-20.6,29.8-14.1,40.4c1.2,2,1.2,4.3,0.4,6.7c-2.3,7.3-11.3,16.2-12.2,24.5
		C182.9,165.8,196.1,171.8,206.1,172.7"/>
	<path class="st1" d="M316.7,137.5h-47.5l-37.2,32.3c0,0,0,0-0.1,0c-7.4,2.6-16,3.8-25.9,2.9c-9.9-0.8-23.2-6.9-31.6-10.7
		c0.9-8.2,9.8-17.2,12.2-24.5h-5.2l-20.2,26.3c0,0-11.8,3.4-14.6,5c-5.2,3-14.9,4.2-23.9,4.5c-9.6,0.3-20.1-2.5-20.1-2.5
		s-3.2-15.5-4.5-33.2H20.9C-6,137.5-23.7,155.6-21,183c2.4,24,21.4,186.4,34.6,310.5c2.6,25,18.6,34.3,40.9,31.1
		c64.7-9.5,147.4-21.7,230.7-34.1c18.4-2.7,30.8-8.4,35-38.8c8.5-61.6,30.1-209.2,38.4-268.7C362.1,158,345.8,137.5,316.7,137.5"/>
	<path class="st2" d="M269.3,137.5h-29.4c-2.3,10.8-5.2,21.9-7.8,32.2h0c0.1,0,0.1,0,0.1,0L269.3,137.5z"/>
	<path class="st2" d="M181.4,137.5h-27.1c2.9,7.1,8.2,16.1,6.9,26.3L181.4,137.5z"/>
	<path class="st3" d="M180.5,207.5V278h-13.9v-7.1c-6.2,5.3-9.3,8.4-17.8,8.4c-7.7,0-12.3-5.6-12.3-14.8v-57h14.7v54.7
		c0,3.5,2.1,5.1,5.2,5.1c3.1,0,6-2,9.4-4.5v-55.3H180.5z"/>
	<path class="st3" d="M215,227c-1.1-5.6-3.7-8.8-8.4-8.8c-3.8,0-6.4,2-6.4,5.6c0,11,27.5,15.5,27.5,36.5c0,12.6-8.7,19-20.6,19
		c-12.9,0-20.2-7.3-22.4-19.7l12.9-3.6c0.9,5.9,3,11.2,9.7,11.2c3.8,0,6.6-2.2,6.6-6.2c0-12.2-27.5-16.8-27.5-36.1
		c0-11.1,8.7-18.9,19.7-18.9c11.5,0,19.3,7.7,21.5,18.7L215,227z"/>
	<path class="st3" d="M228.7,219.5v-12.1h8.1v-19h14.7v19h9.8v12.1h-9.8v40.7c0,3.7,1.6,5.8,5,5.8h4.9v12.6c-2,0.5-3.7,0.8-7.3,0.8
		c-11,0-17.2-5.1-17.2-15.9v-43.9H228.7z"/>
	<path class="st3" d="M107.7,297.6h-8.7v-12.1h8.7v-8.8c0-11.4,6-16.7,16.4-16.7h7.3v12.1h-4.2c-3.5,0-4.9,1.3-4.9,4.7v8.7h8.4v12.1
		h-8.4v58.5h-14.7V297.6z"/>
	<path class="st3" d="M134.2,310.5c0-15.5,6-26.2,22.8-26.2c16.8,0,22.8,10.8,22.8,26.2v20.7c0,15.5-6,26.2-22.8,26.2
		c-16.8,0-22.8-10.8-22.8-26.2V310.5z M165.1,307.9c0-8.1-2.9-11.6-8.1-11.6c-5.3,0-8.1,3.4-8.1,11.6v26c0,8.1,2.9,11.5,8.1,11.5
		c5.2,0,8.1-3.4,8.1-11.5V307.9z"/>
	<path class="st3" d="M185.7,356.1v-70.6h14v8.3h0.3c3.5-6,9.7-9.6,16.7-9.6h3v15.4c-2.6-0.7-5.1-1.5-9.4-1.5c-5,0-9.8,3.2-9.8,9.4
		v48.5H185.7z"/>
	<rect x="34.1" y="340.1" class="st3" width="14.7" height="94.7"/>
	<path class="st3" d="M55.2,384.9c0.8-14.3,9.8-22,23.6-22c13.6,0,21.4,6.3,21.4,19.2v45.2c0,2.2,0.5,5.1,0.9,7.5h-14
		c-0.1-2-0.7-3.8-0.8-5.5c-5.5,4.5-10.1,6.8-17.2,6.8c-10,0-14.9-6.8-14.9-15.9c0-15.5,10.2-24,31.3-32V384c0-5.9-2.4-9-7.2-9
		c-6.7,0-8.1,3.9-8.4,10H55.2z M85.5,398.9c-13.4,7.6-16.7,12.5-16.7,18.6c0,4.6,2.4,6.4,6.8,6.4c4.1,0,7.3-3,9.8-6.5V398.9z"/>
	<path class="st3" d="M151.3,364.2v70.5h-13.9v-7.1c-6.2,5.3-9.3,8.4-17.8,8.4c-7.7,0-12.3-5.6-12.3-14.8v-57h14.7v54.7
		c0,3.5,2.1,5.1,5.3,5.1c3.1,0,6-1.9,9.4-4.4v-55.3H151.3z"/>
	<path class="st3" d="M207.9,375.1c-0.8-0.1-1.6-0.1-2.4-0.1c-2.6,0-5,0.5-7.1,2.2c1.1,3.7,1.6,8.3,1.6,11.1
		c0,21.5-7.3,28.3-22.3,28.3H173c-1.6,0.4-2.9,1.6-2.9,3.3c0,9.6,37.8-4.6,37.8,20.3c0,12.1-11.3,16.8-30.2,16.8
		c-14.7,0-23.3-3.9-23.3-11.3c0-5.5,4.4-9.8,9.6-11v-0.3c-3.9-1.6-6.7-4.3-6.7-8.9c0-4.8,5-9.2,8.9-11.4c-7.4-5.1-9.4-8.8-9.4-25.3
		c0-19.4,6.3-26,22.8-26c6.3,0,11.7,2.2,16.3,7.6c3.9-5.7,5.9-7.6,12.1-7.6V375.1z M194.8,441.3c0-3.7-2.6-5.2-12.5-5.2
		c-9.8,0-12.5,1.6-12.5,5.2c0,3.7,2.6,5.2,12.5,5.2C192.1,446.5,194.8,445,194.8,441.3 M185.3,389.8c0-11.9-1.6-14.8-7.3-14.8
		c-4.7,0-7.4,2.9-7.4,14.8c0,11.9,2.6,14.8,7.4,14.8C183.7,404.6,185.3,401.7,185.3,389.8"/>
	<path class="st3" d="M212.5,434.7v-94.7h14.7v30.7c5.4-4.7,8.5-7.9,17.1-7.9c7.7,0,12.3,5.6,12.3,14.8v57h-14.7V380
		c0-3.5-2.1-5.1-5.2-5.1c-3.1,0-6,2-9.4,4.5v55.3H212.5z"/>
	<path class="st3" d="M291.2,383.7c-1-5.6-3.7-8.8-8.4-8.8c-3.8,0-6.4,2-6.4,5.6c0,11,27.5,15.5,27.5,36.5c0,12.6-8.7,19-20.6,19
		c-12.8,0-20.2-7.3-22.4-19.7l12.9-3.5c0.9,5.9,3,11.1,9.7,11.1c3.8,0,6.5-2.2,6.5-6.2c0-12.2-27.5-16.8-27.5-36.1
		c0-11.1,8.7-18.9,19.7-18.9c11.5,0,19.3,7.7,21.5,18.8L291.2,383.7z"/>
	<path class="st3" d="M135.5,193l-13.8-5.4l-21.1,53.7l0,0l-3.5,8.9c-3,7.6-6.9,9.8-11.8,7.8c-4.9-1.9-6.4-6.2-3.4-13.8l0.6-1.5
		l-13.7-5.4c-5.3,14.1-3.2,25.9,12.1,31.9c15.7,6.2,25.3-1.7,31-16.2l2.5-6.5v0L135.5,193z"/>
</g>
</svg>
