<?xml version="1.0" encoding="UTF-8"?>
<!-- Generator: Limmidy, SVG Export Plug-In . SVG Version: 6.00 Build 0)  -->
<svg version="1.1" id="Layer_1" xmlns="http://www.w3.org/2000/svg" xmlns:xlink="http://www.w3.org/1999/xlink" x="0px" y="0px" viewBox="0 0 235 66" style="enable-background:new 0 0 235 66;" xml:space="preserve">
<title>logo</title>
<g id="Desktop">
	<g id="_010-Watch---JUNOTV">
		<g id="Title-Area">
			<g id="JUNOTV-Logo">
				<path id="JUNO" d="M218.6,37.4c0,8.9-4.1,13.9-11.4,13.9s-11.5-5.1-11.5-13.9v-8.7c0-8.9,4.1-13.9,11.4-13.9s11.5,5.1,11.5,14      V37.4z M207.1,0.5c-17,0-27.3,9.9-27.3,26.4v12.3c0,16.5,10.4,26.4,27.4,26.4s27.3-9.9,27.3-26.4V26.9      C234.5,10.3,224.1,0.5,207.1,0.5z M96.4,37.4c0,8.9-4.1,13.9-11.4,13.9s-11.5-5.1-11.5-13.9V1.6h-16v37.2      c0,16.7,10.3,26.7,27.5,26.7s27.3-9.9,27.3-26.6V1.6H96.4V37.4z M146.2,0.6c-17.1,0-27.3,9.9-27.3,26.6v37.3h16V28.8      c0-8.9,4.1-13.9,11.4-13.9s11.5,5.1,11.5,13.9v35.8h16V27.3c0-16.7-10.2-26.7-27.4-26.7L146.2,0.6z M34.2,40.3      c0,7.5-2.8,10.9-8.9,10.9c-5.1,0-8.1-3-8.5-8.6H0.5c0.8,14.1,10.3,22.9,24.9,22.9c15.8,0,24.8-9.2,24.8-25.1V1.6H34.2L34.2,40.3      z"/>
			</g>
		</g>
	</g>
</g>
</svg>